<svg width="68" height="68" viewBox="0 0 68 68" fill="none" xmlns="http://www.w3.org/2000/svg">
<rect width="68" height="68" rx="12" fill="url(#paint0_linear_437_21769)"/>
<rect opacity="0.5" width="68" height="68" rx="12" transform="matrix(-1 0 0 1 68 0)" fill="url(#paint1_linear_437_21769)"/>
<g filter="url(#filter0_f_437_21769)">
<rect x="10" y="10" width="48" height="48" rx="7" fill="url(#paint2_linear_437_21769)"/>
<rect x="10" y="10" width="48" height="48" rx="7" stroke="#F8A9FA" stroke-width="2"/>
</g>
<rect x="1" y="1" width="66" height="66" rx="11" stroke="#301B54" stroke-width="2"/>
<path d="M16.8276 9.12817C17.5747 10.3664 16.1728 12.5815 13.6963 14.0757C11.2198 15.5699 8.60661 15.7774 7.8595 14.5392C10 10.5 6.52353 9.99422 9 8.5C11.4765 7.00578 16.0805 7.88993 16.8276 9.12817Z" fill="url(#paint3_radial_437_21769)"/>
<path d="M16.8276 9.12817C17.5747 10.3664 16.1728 12.5815 13.6963 14.0757C11.2198 15.5699 8.60661 15.7774 7.8595 14.5392C10 10.5 6.52353 9.99422 9 8.5C11.4765 7.00578 16.0805 7.88993 16.8276 9.12817Z" fill="url(#paint4_radial_437_21769)"/>
<defs>
<filter id="filter0_f_437_21769" x="8" y="8" width="52" height="52" filterUnits="userSpaceOnUse" color-interpolation-filters="sRGB">
<feFlood flood-opacity="0" result="BackgroundImageFix"/>
<feBlend mode="normal" in="SourceGraphic" in2="BackgroundImageFix" result="shape"/>
<feGaussianBlur stdDeviation="0.5" result="effect1_foregroundBlur_437_21769"/>
</filter>
<linearGradient id="paint0_linear_437_21769" x1="0" y1="0" x2="68" y2="68" gradientUnits="userSpaceOnUse">
<stop offset="0.490951" stop-color="#F2A8F7"/>
<stop offset="0.5315" stop-color="#7228A5"/>
</linearGradient>
<linearGradient id="paint1_linear_437_21769" x1="0" y1="0" x2="68" y2="68" gradientUnits="userSpaceOnUse">
<stop offset="0.490951" stop-color="#F2A8F7"/>
<stop offset="0.5315" stop-color="#7228A5"/>
</linearGradient>
<linearGradient id="paint2_linear_437_21769" x1="34" y1="10" x2="34" y2="58" gradientUnits="userSpaceOnUse">
<stop stop-color="#D175E2"/>
<stop offset="1" stop-color="#A251DC"/>
</linearGradient>
<radialGradient id="paint3_radial_437_21769" cx="0" cy="0" r="1" gradientUnits="userSpaceOnUse" gradientTransform="translate(12.5 11.5) rotate(123.69) scale(1.80278 5.14854)">
<stop stop-color="white"/>
<stop offset="1" stop-color="white" stop-opacity="0"/>
</radialGradient>
<radialGradient id="paint4_radial_437_21769" cx="0" cy="0" r="1" gradientUnits="userSpaceOnUse" gradientTransform="translate(12.5 12) rotate(60.0391) scale(2.39553 4.79105)">
<stop stop-color="white"/>
<stop offset="1" stop-color="white" stop-opacity="0"/>
</radialGradient>
</defs>
</svg>
